<svg width="62" height="62" viewBox="0 0 62 62" fill="none" xmlns="http://www.w3.org/2000/svg">
<path d="M38 20.9V29.6H45.8C46.4 29.6 46.7 30.2 46.7 30.8L45.5 36.5C45.5 36.8 44.9 37.1 44.6 37.1H38V59H29V37.4H23.9C23.3 37.4 23 37.1 23 36.5V30.8C23 30.2 23.3 29.9 23.9 29.9H29V20C29 14.9 32.9 11 38 11H46.1C46.7 11 47 11.3 47 11.9V19.1C47 19.7 46.7 20 46.1 20H38.9C38.3 20 38 20.3 38 20.9V20.9Z" stroke="#F8F9FA" stroke-width="1.5" stroke-miterlimit="10" stroke-linecap="round"/>
<path d="M40 61H22C7 61 1 55 1 40V22C1 7 7 1 22 1H40C55 1 61 7 61 22V40C61 55 55 61 40 61Z" stroke="#F8F9FA" stroke-width="1.5" stroke-linecap="round" stroke-linejoin="round"/>
</svg>
