<svg width="52" height="32" viewBox="0 0 52 32" fill="none" xmlns="http://www.w3.org/2000/svg">
<path d="M2 2.76471H49.6471M2 16H49.6471M2 29.2353H49.6471" stroke="#F8F9FA" stroke-width="3" stroke-linecap="round"/>
<path d="M14.353 3.64706C15.2354 2.76471 17.5295 1.17647 19.6471 1.88236C21.7648 2.58824 25.8236 3.35295 27.5883 3.64706C28.7648 3.05883 31.8236 1.88236 34.6471 1.88236C37.4707 1.88236 42.2942 3.05883 44.353 3.64706" stroke="#0A0908" stroke-linecap="round"/>
<path d="M14.353 3.64706C15.2354 2.76471 17.5295 1.17647 19.6471 1.88236C21.7648 2.58824 25.8236 3.35295 27.5883 3.64706C28.7648 3.05883 31.8236 1.88236 34.6471 1.88236C37.4707 1.88236 42.2942 3.05883 44.353 3.64706" stroke="#0A0908" stroke-linecap="round"/>
<path d="M32 4.52941C32.519 2.92467 33.8685 0.0361256 35.1142 1.31992C36.3599 2.60372 38.7474 3.9945 39.7855 4.52941C40.4775 3.45958 42.2768 1.31992 43.9377 1.31992C45.5986 1.31992 48.436 3.45958 49.6471 4.52941" stroke="#0A0908" stroke-linecap="round"/>
<path d="M3.76465 3.64706C4.647 2.76471 6.94112 1.17647 9.05877 1.88236C11.1764 2.58824 15.2352 3.35295 16.9999 3.64706C18.1764 3.05883 21.2352 1.88236 24.0588 1.88236C26.8823 1.88236 31.7058 3.05883 33.7646 3.64706" stroke="#0A0908" stroke-linecap="round"/>
<path d="M13.353 16.7647C14.2354 15.8824 16.5295 14.2941 18.6471 15C20.7648 15.7059 24.8236 16.4706 26.5883 16.7647C27.7648 16.1765 30.8236 15 33.6471 15C36.4707 15 41.2942 16.1765 43.353 16.7647" stroke="#0A0908" stroke-linecap="round"/>
<path d="M13.353 16.7647C14.2354 15.8824 16.5295 14.2941 18.6471 15C20.7648 15.7059 24.8236 16.4706 26.5883 16.7647C27.7648 16.1765 30.8236 15 33.6471 15C36.4707 15 41.2942 16.1765 43.353 16.7647" stroke="#0A0908" stroke-linecap="round"/>
<path d="M31 17.6471C31.519 16.0423 32.8685 13.1538 34.1142 14.4376C35.3599 15.7214 37.7474 17.1121 38.7855 17.6471C39.4775 16.5772 41.2768 14.4376 42.9377 14.4376C44.5986 14.4376 47.436 16.5772 48.6471 17.6471" stroke="#0A0908" stroke-linecap="round"/>
<path d="M2.76465 16.7647C3.647 15.8824 5.94112 14.2941 8.05877 15C10.1764 15.7059 14.2352 16.4706 15.9999 16.7647C17.1764 16.1765 20.2352 15 23.0588 15C25.8823 15 30.7058 16.1765 32.7646 16.7647" stroke="#0A0908" stroke-linecap="round"/>
<path d="M14.353 30.1177C15.2354 29.2353 17.5295 27.6471 19.6471 28.353C21.7648 29.0589 25.8236 29.8236 27.5883 30.1177C28.7648 29.5294 31.8236 28.353 34.6471 28.353C37.4707 28.353 42.2942 29.5294 44.353 30.1177" stroke="#0A0908" stroke-linecap="round"/>
<path d="M14.353 30.1177C15.2354 29.2353 17.5295 27.6471 19.6471 28.353C21.7648 29.0589 25.8236 29.8236 27.5883 30.1177C28.7648 29.5294 31.8236 28.353 34.6471 28.353C37.4707 28.353 42.2942 29.5294 44.353 30.1177" stroke="#0A0908" stroke-linecap="round"/>
<path d="M32 31C32.519 29.3952 33.8685 26.5067 35.1142 27.7905C36.3599 29.0743 38.7474 30.4651 39.7855 31C40.4775 29.9302 42.2768 27.7905 43.9377 27.7905C45.5986 27.7905 48.436 29.9302 49.6471 31" stroke="#0A0908" stroke-linecap="round"/>
<path d="M3.76465 30.1177C4.647 29.2353 6.94112 27.6471 9.05877 28.353C11.1764 29.0589 15.2352 29.8236 16.9999 30.1177C18.1764 29.5294 21.2352 28.353 24.0588 28.353C26.8823 28.353 31.7058 29.5294 33.7646 30.1177" stroke="#0A0908" stroke-linecap="round"/>
</svg>
