<svg width="60" height="60" viewBox="0 0 60 60" fill="none" xmlns="http://www.w3.org/2000/svg">
<path d="M42.5912 0H17.4387C6.51324 0 0 6.51 0 17.43V42.54C0 53.49 6.51324 60 17.4387 60H42.5612C53.4867 60 59.9999 53.49 59.9999 42.57V17.43C60.0299 6.51 53.5167 0 42.5912 0ZM30.015 41.64C23.5918 41.64 18.3692 36.42 18.3692 30C18.3692 23.58 23.5918 18.36 30.015 18.36C36.4382 18.36 41.6608 23.58 41.6608 30C41.6608 36.42 36.4382 41.64 30.015 41.64V41.64ZM47.7838 14.64C47.6337 15 47.4236 15.33 47.1535 15.63C46.8533 15.9 46.5232 16.11 46.163 16.26C45.6168 16.4917 45.0138 16.5556 44.4311 16.4434C43.8484 16.3312 43.3124 16.048 42.8914 15.63C42.6212 15.33 42.4111 15 42.2611 14.64C42.1069 14.2795 42.0253 13.8921 42.0209 13.5C42.0209 13.11 42.111 12.72 42.2611 12.36C42.4111 11.97 42.6212 11.67 42.8914 11.37C43.5817 10.68 44.6322 10.35 45.5927 10.56C45.8028 10.59 45.9829 10.65 46.163 10.74C46.3431 10.8 46.5232 10.89 46.7033 11.01C46.8533 11.1 47.0034 11.25 47.1535 11.37C47.4236 11.67 47.6337 11.97 47.7838 12.36C47.9339 12.72 48.0239 13.11 48.0239 13.5C48.0239 13.89 47.9339 14.28 47.7838 14.64V14.64Z" fill="#F8F9FA"/>
</svg>
