<svg width="17" height="18" viewBox="0 0 17 18" fill="none" xmlns="http://www.w3.org/2000/svg">
<path d="M1 1H2.31464C3.13062 1 3.77283 1.744 3.70483 2.6L3.07774 10.568C3.05325 10.8767 3.08959 11.1874 3.18444 11.4804C3.2793 11.7735 3.43061 12.0425 3.62878 12.2703C3.82695 12.4982 4.06767 12.68 4.33567 12.8043C4.60368 12.9285 4.89313 12.9924 5.18569 12.992H13.2322C14.3202 12.992 15.2722 12.048 15.3553 10.904L15.7633 4.904C15.8539 3.576 14.9019 2.496 13.6402 2.496H3.88616M6.28878 5.8H15.3553M11.7664 17C12.0169 17 12.2571 16.8946 12.4343 16.7071C12.6114 16.5196 12.7109 16.2652 12.7109 16C12.7109 15.7348 12.6114 15.4804 12.4343 15.2929C12.2571 15.1054 12.0169 15 11.7664 15C11.516 15 11.2758 15.1054 11.0986 15.2929C10.9215 15.4804 10.822 15.7348 10.822 16C10.822 16.2652 10.9215 16.5196 11.0986 16.7071C11.2758 16.8946 11.516 17 11.7664 17ZM5.72213 17C5.9726 17 6.21282 16.8946 6.38994 16.7071C6.56705 16.5196 6.66655 16.2652 6.66655 16C6.66655 15.7348 6.56705 15.4804 6.38994 15.2929C6.21282 15.1054 5.9726 15 5.72213 15C5.47165 15 5.23143 15.1054 5.05432 15.2929C4.8772 15.4804 4.7777 15.7348 4.7777 16C4.7777 16.2652 4.8772 16.5196 5.05432 16.7071C5.23143 16.8946 5.47165 17 5.72213 17V17Z" stroke="#F8F9FA" stroke-width="1.25" stroke-miterlimit="10" stroke-linecap="round" stroke-linejoin="round"/>
</svg>
