<svg width="32" height="32" viewBox="0 0 32 32" fill="none" xmlns="http://www.w3.org/2000/svg">
<path d="M2.02185 2.38754L29.6124 29.9781" stroke="#F8F9FA" stroke-width="3" stroke-linecap="round"/>
<path d="M8.66399 10.0516C9.68586 10.0516 11.934 10.4604 12.7515 12.0954C13.569 13.7304 15.4765 16.5235 16.328 17.7157C17.3499 18.0563 19.8024 19.1463 21.4374 20.7813C23.0724 22.4163 25.1843 25.8906 26.0358 27.4235" stroke="#0A0908" stroke-linecap="round"/>
<path d="M8.66399 10.0516C9.68586 10.0516 11.934 10.4604 12.7515 12.0954C13.569 13.7304 15.4765 16.5235 16.328 17.7157C17.3499 18.0563 19.8024 19.1463 21.4374 20.7813C23.0724 22.4163 25.1843 25.8906 26.0358 27.4235" stroke="#0A0908" stroke-linecap="round"/>
<path d="M18.3718 20.7813C19.6016 20.1526 22.0557 19.2614 22.0336 20.7261C22.0115 22.1908 22.5887 24.3787 22.88 25.2895C23.9003 25.0708 26.1812 24.8737 27.1429 25.8354C28.1047 26.7972 28.5087 29.6792 28.5905 31" stroke="#0A0908" stroke-linecap="round"/>
<path d="M2.5327 3.92036C3.55457 3.92036 5.80269 4.32911 6.62019 5.96411C7.43769 7.59911 9.34519 10.3922 10.1967 11.5844C11.2186 11.925 13.6711 13.015 15.3061 14.65C16.9411 16.285 19.053 19.7594 19.9045 21.2922" stroke="#0A0908" stroke-linecap="round"/>
<path d="M2.37872 29.6124L29.9693 2.02186" stroke="#F8F9FA" stroke-width="3" stroke-linecap="round"/>
<path d="M10.0427 22.9703C10.0427 21.9484 10.4515 19.7003 12.0865 18.8828C13.7215 18.0653 16.5146 16.1578 17.7068 15.3062C18.0474 14.2844 19.1374 11.8319 20.7724 10.1969C22.4074 8.56188 25.8818 6.45001 27.4146 5.59845" stroke="#0A0908" stroke-linecap="round"/>
<path d="M10.0427 22.9703C10.0427 21.9484 10.4515 19.7003 12.0865 18.8828C13.7215 18.0653 16.5146 16.1578 17.7068 15.3062C18.0474 14.2844 19.1374 11.8319 20.7724 10.1969C22.4074 8.56188 25.8818 6.45001 27.4146 5.59845" stroke="#0A0908" stroke-linecap="round"/>
<path d="M20.7724 13.2625C20.1437 12.0327 19.2525 9.57862 20.7173 9.6007C22.182 9.62277 24.3699 9.04559 25.2807 8.75423C25.0619 7.734 24.8649 5.4531 25.8266 4.49133C26.7884 3.52957 29.6704 3.12556 30.9912 3.04377" stroke="#0A0908" stroke-linecap="round"/>
<path d="M3.91157 29.1015C3.91157 28.0797 4.32032 25.8316 5.95532 25.0141C7.59032 24.1966 10.3834 22.2891 11.5756 21.4375C11.9162 20.4156 13.0062 17.9631 14.6412 16.3281C16.2762 14.6931 19.7506 12.5813 21.2834 11.7297" stroke="#0A0908" stroke-linecap="round"/>
</svg>
